<mxfile host="app.diagrams.net" agent="Mozilla/5.0 (Windows NT 10.0; Win64; x64) AppleWebKit/537.36 (KHTML, like Gecko) Chrome/130.0.0.0 Safari/537.36 Edg/130.0.0.0" version="24.8.6">
  <diagram name="PÃ¡gina-1" id="0stSv6vwO86S6kNsumJf">
    <mxGraphModel dx="1426" dy="747" grid="1" gridSize="10" guides="1" tooltips="1" connect="1" arrows="1" fold="1" page="1" pageScale="1" pageWidth="1169" pageHeight="827" math="0" shadow="0">
      <root>
        <mxCell id="0" />
        <mxCell id="1" parent="0" />
        <mxCell id="o0gNu9wO4tVRjxRkPHNM-2" value="" style="endArrow=cross;html=1;rounded=0;fillColor=#e51400;strokeColor=#B20000;dashed=1;strokeWidth=2;fontSize=13;align=right;fontStyle=0;endFill=0;" edge="1" parent="1">
          <mxGeometry width="50" height="50" relative="1" as="geometry">
            <mxPoint x="755" y="55.20999999999998" as="sourcePoint" />
            <mxPoint x="811" y="55" as="targetPoint" />
          </mxGeometry>
        </mxCell>
        <mxCell id="o0gNu9wO4tVRjxRkPHNM-3" value="Return the blocked status" style="text;html=1;align=right;verticalAlign=middle;whiteSpace=wrap;rounded=0;fontSize=13;fontStyle=0" vertex="1" parent="1">
          <mxGeometry x="600" y="40" width="150" height="30" as="geometry" />
        </mxCell>
        <mxCell id="o0gNu9wO4tVRjxRkPHNM-4" value="" style="edgeStyle=orthogonalEdgeStyle;rounded=0;orthogonalLoop=1;jettySize=auto;html=1;endArrow=cross;endFill=0;fillColor=#e51400;strokeColor=#B20000;strokeWidth=2;fontSize=13;align=right;fontStyle=0" edge="1" parent="1">
          <mxGeometry relative="1" as="geometry">
            <mxPoint x="755" y="85" as="sourcePoint" />
            <mxPoint x="811" y="85" as="targetPoint" />
          </mxGeometry>
        </mxCell>
        <mxCell id="o0gNu9wO4tVRjxRkPHNM-5" value="" style="edgeStyle=orthogonalEdgeStyle;rounded=0;orthogonalLoop=1;jettySize=auto;html=1;endArrow=block;endFill=1;fillColor=#d5e8d4;strokeColor=#82b366;strokeWidth=2;fontSize=13;align=right;fontStyle=0" edge="1" parent="1">
          <mxGeometry relative="1" as="geometry">
            <mxPoint x="755" y="115" as="sourcePoint" />
            <mxPoint x="811" y="115" as="targetPoint" />
          </mxGeometry>
        </mxCell>
        <mxCell id="o0gNu9wO4tVRjxRkPHNM-6" value="" style="edgeStyle=orthogonalEdgeStyle;rounded=0;orthogonalLoop=1;jettySize=auto;html=1;endArrow=block;endFill=1;fillColor=#f0a30a;strokeColor=#BD7000;strokeWidth=2;fontSize=13;align=right;fontStyle=0" edge="1" parent="1">
          <mxGeometry relative="1" as="geometry">
            <mxPoint x="755" y="145" as="sourcePoint" />
            <mxPoint x="811" y="145" as="targetPoint" />
          </mxGeometry>
        </mxCell>
        <mxCell id="o0gNu9wO4tVRjxRkPHNM-7" value="Status: Bloqued" style="text;html=1;align=right;verticalAlign=middle;whiteSpace=wrap;rounded=0;fontSize=13;fontStyle=0" vertex="1" parent="1">
          <mxGeometry x="646" y="70" width="104" height="30" as="geometry" />
        </mxCell>
        <mxCell id="o0gNu9wO4tVRjxRkPHNM-8" value="Status: Success" style="text;html=1;align=right;verticalAlign=middle;whiteSpace=wrap;rounded=0;fontSize=13;fontStyle=0" vertex="1" parent="1">
          <mxGeometry x="631" y="100" width="119" height="30" as="geometry" />
        </mxCell>
        <mxCell id="o0gNu9wO4tVRjxRkPHNM-9" value="Status: Pending" style="text;html=1;align=right;verticalAlign=middle;whiteSpace=wrap;rounded=0;fontSize=13;fontStyle=0" vertex="1" parent="1">
          <mxGeometry x="630" y="130" width="119" height="30" as="geometry" />
        </mxCell>
        <mxCell id="o0gNu9wO4tVRjxRkPHNM-10" value="&lt;span style=&quot;font-size: 13px;&quot;&gt;Insuficient balance for transaction&lt;/span&gt;" style="swimlane;whiteSpace=wrap;html=1;fillColor=#f5f5f5;fontColor=#333333;strokeColor=#666666;" vertex="1" parent="1">
          <mxGeometry x="120" y="40" width="440" height="680" as="geometry" />
        </mxCell>
        <mxCell id="o0gNu9wO4tVRjxRkPHNM-12" value="" style="edgeStyle=orthogonalEdgeStyle;rounded=0;orthogonalLoop=1;jettySize=auto;html=1;fillColor=#d5e8d4;strokeColor=#82b366;strokeWidth=2;endArrow=block;endFill=1;" edge="1" parent="o0gNu9wO4tVRjxRkPHNM-10" source="o0gNu9wO4tVRjxRkPHNM-13" target="o0gNu9wO4tVRjxRkPHNM-15">
          <mxGeometry relative="1" as="geometry" />
        </mxCell>
        <mxCell id="o0gNu9wO4tVRjxRkPHNM-13" value="Client" style="shape=actor;whiteSpace=wrap;html=1;verticalAlign=bottom;labelPosition=center;verticalLabelPosition=top;align=center;fillColor=#f5f5f5;fontColor=#333333;strokeColor=#666666;fontStyle=1" vertex="1" parent="o0gNu9wO4tVRjxRkPHNM-10">
          <mxGeometry x="130" y="60" width="40" height="60" as="geometry" />
        </mxCell>
        <mxCell id="o0gNu9wO4tVRjxRkPHNM-14" value="" style="edgeStyle=orthogonalEdgeStyle;rounded=0;orthogonalLoop=1;jettySize=auto;html=1;fillColor=#d5e8d4;strokeColor=#82b366;strokeWidth=2;endArrow=block;endFill=1;" edge="1" parent="o0gNu9wO4tVRjxRkPHNM-10" source="o0gNu9wO4tVRjxRkPHNM-15" target="o0gNu9wO4tVRjxRkPHNM-18">
          <mxGeometry relative="1" as="geometry" />
        </mxCell>
        <mxCell id="o0gNu9wO4tVRjxRkPHNM-15" value="API Gateway" style="rounded=0;whiteSpace=wrap;html=1;fontStyle=1" vertex="1" parent="o0gNu9wO4tVRjxRkPHNM-10">
          <mxGeometry x="95" y="160" width="110" height="50" as="geometry" />
        </mxCell>
        <mxCell id="o0gNu9wO4tVRjxRkPHNM-25" value="" style="edgeStyle=orthogonalEdgeStyle;rounded=0;orthogonalLoop=1;jettySize=auto;html=1;fillColor=#d5e8d4;strokeColor=#82b366;strokeWidth=2;endArrow=block;endFill=1;" edge="1" parent="o0gNu9wO4tVRjxRkPHNM-10" source="o0gNu9wO4tVRjxRkPHNM-18" target="o0gNu9wO4tVRjxRkPHNM-21">
          <mxGeometry relative="1" as="geometry" />
        </mxCell>
        <mxCell id="o0gNu9wO4tVRjxRkPHNM-18" value="Pix System" style="shape=cube;whiteSpace=wrap;html=1;boundedLbl=1;backgroundOutline=1;darkOpacity=0.05;darkOpacity2=0.1;fillColor=#dae8fc;strokeColor=#6c8ebf;fontStyle=1" vertex="1" parent="o0gNu9wO4tVRjxRkPHNM-10">
          <mxGeometry x="90" y="250" width="120" height="80" as="geometry" />
        </mxCell>
        <mxCell id="o0gNu9wO4tVRjxRkPHNM-26" value="" style="edgeStyle=orthogonalEdgeStyle;rounded=0;orthogonalLoop=1;jettySize=auto;html=1;strokeWidth=2;fillColor=#d5e8d4;strokeColor=#82b366;endArrow=block;endFill=1;" edge="1" parent="o0gNu9wO4tVRjxRkPHNM-10" source="o0gNu9wO4tVRjxRkPHNM-21" target="o0gNu9wO4tVRjxRkPHNM-23">
          <mxGeometry relative="1" as="geometry" />
        </mxCell>
        <mxCell id="o0gNu9wO4tVRjxRkPHNM-21" value="Moria (Authorizer)" style="rounded=0;whiteSpace=wrap;html=1;fontStyle=1" vertex="1" parent="o0gNu9wO4tVRjxRkPHNM-10">
          <mxGeometry x="95" y="370" width="110" height="50" as="geometry" />
        </mxCell>
        <mxCell id="o0gNu9wO4tVRjxRkPHNM-27" value="" style="edgeStyle=orthogonalEdgeStyle;rounded=0;orthogonalLoop=1;jettySize=auto;html=1;strokeWidth=2;endArrow=block;endFill=1;fillColor=#d5e8d4;strokeColor=#82b366;" edge="1" parent="o0gNu9wO4tVRjxRkPHNM-10" source="o0gNu9wO4tVRjxRkPHNM-23" target="o0gNu9wO4tVRjxRkPHNM-24">
          <mxGeometry relative="1" as="geometry" />
        </mxCell>
        <mxCell id="o0gNu9wO4tVRjxRkPHNM-31" style="edgeStyle=orthogonalEdgeStyle;rounded=0;orthogonalLoop=1;jettySize=auto;html=1;entryX=1;entryY=0.5;entryDx=0;entryDy=0;fillColor=#e51400;strokeColor=#B20000;strokeWidth=2;endArrow=cross;endFill=0;" edge="1" parent="o0gNu9wO4tVRjxRkPHNM-10" source="o0gNu9wO4tVRjxRkPHNM-23" target="o0gNu9wO4tVRjxRkPHNM-21">
          <mxGeometry relative="1" as="geometry">
            <Array as="points">
              <mxPoint x="310" y="480" />
              <mxPoint x="310" y="395" />
            </Array>
          </mxGeometry>
        </mxCell>
        <mxCell id="o0gNu9wO4tVRjxRkPHNM-23" value="Ledger" style="shape=cube;whiteSpace=wrap;html=1;boundedLbl=1;backgroundOutline=1;darkOpacity=0.05;darkOpacity2=0.1;fillColor=#dae8fc;strokeColor=#6c8ebf;fontStyle=1" vertex="1" parent="o0gNu9wO4tVRjxRkPHNM-10">
          <mxGeometry x="90" y="460" width="120" height="80" as="geometry" />
        </mxCell>
        <mxCell id="o0gNu9wO4tVRjxRkPHNM-29" value="" style="edgeStyle=orthogonalEdgeStyle;rounded=0;orthogonalLoop=1;jettySize=auto;html=1;fillColor=#f0a30a;strokeColor=#BD7000;strokeWidth=2;endArrow=block;endFill=1;" edge="1" parent="o0gNu9wO4tVRjxRkPHNM-10" source="o0gNu9wO4tVRjxRkPHNM-24" target="o0gNu9wO4tVRjxRkPHNM-28">
          <mxGeometry relative="1" as="geometry" />
        </mxCell>
        <mxCell id="o0gNu9wO4tVRjxRkPHNM-24" value="Transaction API" style="rounded=0;whiteSpace=wrap;html=1;fontStyle=1" vertex="1" parent="o0gNu9wO4tVRjxRkPHNM-10">
          <mxGeometry x="95" y="580" width="110" height="50" as="geometry" />
        </mxCell>
        <mxCell id="o0gNu9wO4tVRjxRkPHNM-28" value="&lt;div&gt;&lt;b&gt;Enough balance?&lt;/b&gt;&lt;/div&gt;" style="rhombus;whiteSpace=wrap;html=1;fillColor=#fff2cc;strokeColor=#d6b656;" vertex="1" parent="o0gNu9wO4tVRjxRkPHNM-10">
          <mxGeometry x="300" y="565" width="80" height="80" as="geometry" />
        </mxCell>
        <mxCell id="o0gNu9wO4tVRjxRkPHNM-30" style="edgeStyle=orthogonalEdgeStyle;rounded=0;orthogonalLoop=1;jettySize=auto;html=1;strokeWidth=2;fillColor=#e51400;strokeColor=#B20000;endArrow=cross;endFill=0;" edge="1" parent="o0gNu9wO4tVRjxRkPHNM-10" source="o0gNu9wO4tVRjxRkPHNM-28">
          <mxGeometry relative="1" as="geometry">
            <mxPoint x="210" y="520" as="targetPoint" />
            <Array as="points">
              <mxPoint x="340" y="520" />
            </Array>
          </mxGeometry>
        </mxCell>
        <mxCell id="o0gNu9wO4tVRjxRkPHNM-32" style="edgeStyle=orthogonalEdgeStyle;rounded=0;orthogonalLoop=1;jettySize=auto;html=1;entryX=0;entryY=0;entryDx=120;entryDy=50;entryPerimeter=0;fillColor=#e51400;strokeColor=#B20000;strokeWidth=2;endArrow=cross;endFill=0;" edge="1" parent="o0gNu9wO4tVRjxRkPHNM-10" source="o0gNu9wO4tVRjxRkPHNM-23" target="o0gNu9wO4tVRjxRkPHNM-18">
          <mxGeometry relative="1" as="geometry">
            <Array as="points">
              <mxPoint x="340" y="500" />
              <mxPoint x="340" y="300" />
            </Array>
          </mxGeometry>
        </mxCell>
        <mxCell id="o0gNu9wO4tVRjxRkPHNM-33" style="edgeStyle=orthogonalEdgeStyle;rounded=0;orthogonalLoop=1;jettySize=auto;html=1;entryX=0.975;entryY=0.617;entryDx=0;entryDy=0;entryPerimeter=0;dashed=1;fillColor=#e51400;strokeColor=#B20000;strokeWidth=2;endArrow=cross;endFill=0;" edge="1" parent="o0gNu9wO4tVRjxRkPHNM-10" source="o0gNu9wO4tVRjxRkPHNM-18" target="o0gNu9wO4tVRjxRkPHNM-13">
          <mxGeometry relative="1" as="geometry">
            <Array as="points">
              <mxPoint x="340" y="290" />
              <mxPoint x="340" y="97" />
            </Array>
          </mxGeometry>
        </mxCell>
        <mxCell id="o0gNu9wO4tVRjxRkPHNM-34" value="No" style="text;html=1;align=center;verticalAlign=middle;whiteSpace=wrap;rounded=0;" vertex="1" parent="o0gNu9wO4tVRjxRkPHNM-10">
          <mxGeometry x="330" y="540" width="60" height="30" as="geometry" />
        </mxCell>
      </root>
    </mxGraphModel>
  </diagram>
</mxfile>
